PathFileType	4	(X/Y/Z)	OpenSim_Sub02_CSBaseline_Accel.trc
DataRate	CameraRate	NumFrames	NumMarkers	Units	OrigDataRate	OrigDataStartFrame	OrigNumFrames
100	100	20	8	m	100	4411	7057
Frame#	Time	torso_imu_offset_imu	pelvis_imu_offset_imu	tibia_r_imu_offset_imu	femur_r_imu_offset_imu	tibia_l_imu_offset_imu	femur_l_imu_offset_imu	toes_r_imu_offset_imu	toes_l_imu_offset_imu
				X1	Y1	Z1	X2	Y2	Z2	X3	Y3	Z3	X4	Y4	Z4	X5	Y5	Z5	X6	Y6	Z6	X7	Y7	Z7	X8		Y8	Z8	

4411	44.10000000	8.43513378	0.11327843	7.65084236	9.62377435	1.12110097	2.13280286	9.67215569	0.72303708	0.53773299	9.17088090	-1.52597797	-0.54621520	14.28801169	-3.78403926	3.60741877	8.71699924	8.33809378	0.80610114	4.82990422	-0.01610217	8.81782236	16.19176963	-0.33581992	5.88210905
4412	44.11000000	8.43755166	0.16738387	7.59407820	9.79057376	0.98888006	2.25129249	9.67252348	0.81599658	0.09217636	9.01717885	-2.02757329	-0.89414981	13.72154821	-5.33963653	0.20246212	8.43890481	9.43872579	0.64944150	5.14539870	0.17036154	8.63606991	19.92120733	-2.09359679	3.55781546
4413	44.12000000	8.58872792	0.24857198	7.65910507	9.77346426	0.65081019	2.42486574	9.78187555	1.09957184	0.30893554	8.88724547	-2.27379549	-1.08291908	11.49346971	-1.13186038	-0.87613171	8.70461956	10.05100556	-0.02568926	4.92912672	0.06500443	8.81588524	21.58740067	-4.60841822	0.74098113
4414	44.13000000	8.71898775	0.36795949	7.70240475	9.77874418	0.47882736	2.56471748	9.74349511	1.71987099	0.49883842	8.99608453	-2.25768333	-1.11325566	10.03747270	2.54561842	-0.44904741	9.41916671	10.02217266	-0.86864563	5.04198334	-0.09043661	8.77679139	22.63213385	-9.15794695	-3.32681321
4415	44.14000000	8.79873971	0.37231033	7.65507132	9.74731072	0.50716375	2.47066768	9.76035938	2.14587159	0.34494951	9.15326536	-2.38647018	-1.37999094	11.69312666	4.97259091	-2.90525472	10.08909351	9.51999152	-0.87361888	5.03797988	0.04233613	8.86885772	22.74809325	-8.54025244	-6.77874583
4416	44.15000000	8.78982246	0.38860084	7.65682742	9.57064995	0.71392955	2.14708025	9.87512194	1.93808319	0.28175648	9.12691684	-2.32790286	-1.63146963	12.07291784	5.39118892	-4.30229241	9.65683102	8.45554794	-0.22098450	5.12852965	-0.10906361	8.83115554	21.01652904	-4.31997731	-6.72551722
4417	44.16000000	8.77318141	0.42279722	7.68385054	9.29097525	0.89073843	1.66439269	10.03972208	1.66151739	0.30464459	9.06946561	-1.96963949	-1.54322699	10.38715731	2.30494194	-2.46136104	8.43405433	6.71115698	-0.09254926	5.37760653	-0.08946862	8.73766359	17.42017180	-2.53868933	-4.14801952
4418	44.17000000	8.74685193	0.37287471	7.62555308	9.36566997	1.17034266	1.24149176	9.94376203	1.58959282	0.43186807	9.32697687	-1.12949581	-1.16639225	9.55394476	-1.15843872	-0.60970020	7.32809824	4.70834129	-0.67442435	5.05101106	-0.01147563	9.01487044	11.38864550	0.66230923	2.93375340
4419	44.18000000	8.67500308	0.21609983	7.59408613	9.48503739	1.49453420	1.26107658	10.00203949	2.17698068	0.90227128	9.86926678	-0.66989892	-0.64315686	9.40132477	-3.00389336	-0.25396920	6.60698193	2.67579622	-0.99431519	4.86139663	-0.58142464	9.15635937	0.78119978	6.02954287	12.56880537
4420	44.19000000	8.71305460	0.02846683	7.66370709	9.88615118	1.85885541	1.46085767	10.27066672	2.86549441	1.08251733	10.27863151	-0.69630904	-0.38003708	8.56591998	-3.95617404	-0.29108674	6.88397711	0.94447730	-0.75731930	4.99514307	-0.58533057	9.18244609	-14.21452574	5.34156753	25.74580910
4421	44.20000000	9.09247446	-0.08648553	7.66579576	10.47061092	1.86142317	2.03517406	10.69549695	3.15711864	1.45420323	10.50594788	-0.83333143	-0.46104269	6.11758517	-3.46730471	-0.58303562	9.12306349	-0.16600926	-0.09276146	5.25856775	-0.04076065	9.20410215	-15.97916509	4.37500304	29.12202008
4422	44.21000000	9.90292682	0.00535395	7.67679135	11.28502330	0.98524805	2.70218749	11.11139056	3.09846679	2.12606400	10.65196108	-1.42441608	-0.35189589	7.95871608	1.42751369	-0.02121582	13.07249014	-0.18165749	0.20287393	5.12578492	-0.00001863	9.41799106	-5.73242577	-4.28448594	1.33641246
4423	44.22000000	10.80168622	0.31238459	8.13162439	11.96323737	-0.22094776	3.27344897	11.42922868	2.68454164	2.82002796	10.74302914	-1.88382030	-0.06715714	17.78746005	12.54274246	4.74821074	16.14254223	0.67249437	-0.49603677	4.78628559	-0.29534006	9.47582365	4.03401975	-9.78413639	7.44116058
4424	44.23000000	11.09254637	0.61243470	8.31078118	12.08910233	-1.57863301	3.88102539	11.45039670	2.14020827	3.31464544	10.72754644	-1.99034943	0.03910431	19.34290947	17.80599223	9.86133001	17.12603917	0.23849921	-0.75501768	4.82668666	-0.12117460	9.51126796	15.07758309	-5.71721645	22.19035152
4425	44.24000000	11.06210273	0.61247204	8.10991750	13.11334524	-3.21198456	4.41663406	11.34888323	1.66367107	3.29041802	10.53876428	-1.93782509	-0.07498017	13.45574365	9.75921038	9.64781237	19.27000916	-0.34248876	0.68146767	5.17049991	0.25014331	9.40392445	10.60095106	-3.09224167	16.98625318
4426	44.25000000	11.53841478	0.49687559	8.62685089	13.48417034	-4.66431577	4.59161372	11.71207083	1.53346644	3.64023443	10.58666776	-1.62344650	-0.28574323	13.47270804	2.47125044	7.37956308	17.96485117	0.18768261	2.03636134	5.31302734	0.20124840	9.55240143	9.56982349	0.52816279	15.62676119
4427	44.26000000	12.22680187	0.52716646	9.03785899	12.56832592	-4.59366225	4.57791860	12.23502063	1.65946820	3.74569922	10.96379713	-1.22837855	-0.52872740	15.33885308	0.55969327	7.50671628	14.15069865	1.87272433	2.29342323	4.89008812	-0.68038206	9.69196867	15.79209891	6.87860989	20.05352041
4428	44.27000000	12.16553075	0.74880662	9.07039293	11.55436719	-3.40128400	4.61576797	12.80615557	1.73179842	3.20987664	11.25803261	-0.76033663	-0.51556093	14.61111171	2.39430697	5.58807262	10.94213979	3.96279799	1.05271051	5.14554244	-1.10544365	9.42810098	13.16586312	2.23087969	16.77369507
4429	44.28000000	11.25909470	0.89384304	9.04220280	10.46212842	-1.52827180	4.23800795	13.18373913	1.76595256	2.58816808	11.03773024	-0.49278436	-0.08078266	12.35256953	3.52695795	0.11073012	9.05882875	4.05594493	-1.26939887	4.82221364	-1.37973601	9.14100062	8.99167609	-2.29316915	14.25158679
4430	44.29000000	9.99124989	1.02941275	8.80336048	9.50118690	0.42990850	4.27103704	12.94112812	1.74546577	2.78516092	11.05807741	-0.19458171	0.43129898	7.39496012	-0.22482423	-4.95658949	7.99223269	1.73616988	-3.37528104	5.39007526	-2.58622811	8.77448790	4.29870168	-0.80424005	11.36225334
